name rise31.4854peak64.571fall78.6902.mot
datacolumns 19
datarows 27
range 18.746595 18.789932
endheader
time	ground_force1_vx	ground_force1_vy	ground_force1_vz	ground_force1_px	ground_force1_py	ground_force1_pz	ground_force2_vx	ground_force2_vy	ground_force2_vz	ground_force2_px	ground_force2_py	ground_force2_pz	ground_torque1_x	ground_torque1_y	ground_torque1_z	ground_torque2_x	ground_torque2_y	ground_torque2_z	
18.746595	0.000000	0.000000	0.000000	0.000000	0.000000	0.000000	-1.520249	692.808589	-43.388666	0.204861	0.000000	-0.094676	0.000000	0.000000	0.000000	0.000000	-17.998960	0.000000	
18.748262	0.000000	0.000000	0.000000	0.000000	0.000000	0.000000	-2.111930	693.656047	-43.315481	0.203742	0.000000	-0.094677	0.000000	0.000000	0.000000	0.000000	-18.035282	0.000000	
18.749929	0.000000	0.000000	0.000000	0.000000	0.000000	0.000000	-2.708117	694.530788	-43.244961	0.202621	0.000000	-0.094677	0.000000	0.000000	0.000000	0.000000	-18.074329	0.000000	
18.751600	0.000000	0.000000	0.000000	0.000000	0.000000	0.000000	-3.308780	695.432512	-43.177346	0.201501	0.000000	-0.094677	0.000000	0.000000	0.000000	0.000000	-18.116103	0.000000	
18.753264	0.000000	0.000000	0.000000	0.000000	0.000000	0.000000	-3.913887	696.360979	-43.112885	0.200381	0.000000	-0.094678	0.000000	0.000000	0.000000	0.000000	-18.160603	0.000000	
18.754927	0.000000	0.000000	0.000000	0.000000	0.000000	0.000000	-4.523406	697.316009	-43.051835	0.199262	0.000000	-0.094679	0.000000	0.000000	0.000000	0.000000	-18.207828	0.000000	
18.756596	0.000000	0.000000	0.000000	0.000000	0.000000	0.000000	-5.137304	698.297479	-42.994459	0.198147	0.000000	-0.094680	0.000000	0.000000	0.000000	0.000000	-18.257776	0.000000	
18.758261	0.000000	0.000000	0.000000	0.000000	0.000000	0.000000	-5.755545	699.305323	-42.941024	0.197034	0.000000	-0.094680	0.000000	0.000000	0.000000	0.000000	-18.310439	0.000000	
18.759926	0.000000	0.000000	0.000000	0.000000	0.000000	0.000000	-6.378096	700.339531	-42.891803	0.195925	0.000000	-0.094681	0.000000	0.000000	0.000000	0.000000	-18.365812	0.000000	
18.761601	0.000000	0.000000	0.000000	0.000000	0.000000	0.000000	-7.004922	701.400147	-42.847068	0.194822	0.000000	-0.094682	0.000000	0.000000	0.000000	0.000000	-18.423883	0.000000	
18.763268	0.000000	0.000000	0.000000	0.000000	0.000000	0.000000	-7.635990	702.487265	-42.807093	0.193723	0.000000	-0.094683	0.000000	0.000000	0.000000	0.000000	-18.484639	0.000000	
18.764928	0.000000	0.000000	0.000000	0.000000	0.000000	0.000000	-8.271265	703.601029	-42.772153	0.192631	0.000000	-0.094684	0.000000	0.000000	0.000000	0.000000	-18.548062	0.000000	
18.766594	0.000000	0.000000	0.000000	0.000000	0.000000	0.000000	-8.910714	704.741629	-42.742517	0.191544	0.000000	-0.094684	0.000000	0.000000	0.000000	0.000000	-18.614134	0.000000	
18.768260	0.000000	0.000000	0.000000	0.000000	0.000000	0.000000	-9.554302	705.909295	-42.718453	0.190465	0.000000	-0.094685	0.000000	0.000000	0.000000	0.000000	-18.682829	0.000000	
18.769928	0.000000	0.000000	0.000000	0.000000	0.000000	0.000000	-10.201992	707.104299	-42.700225	0.189392	0.000000	-0.094686	0.000000	0.000000	0.000000	0.000000	-18.754120	0.000000	
18.771600	0.000000	0.000000	0.000000	0.000000	0.000000	0.000000	-10.853747	708.326945	-42.688089	0.188326	0.000000	-0.094687	0.000000	0.000000	0.000000	0.000000	-18.827973	0.000000	
18.773268	0.000000	0.000000	0.000000	0.000000	0.000000	0.000000	-11.509527	709.577564	-42.682294	0.187268	0.000000	-0.094687	0.000000	0.000000	0.000000	0.000000	-18.904351	0.000000	
18.774929	0.000000	0.000000	0.000000	0.000000	0.000000	0.000000	-12.169286	710.856517	-42.683084	0.186217	0.000000	-0.094688	0.000000	0.000000	0.000000	0.000000	-18.983212	0.000000	
18.776600	0.000000	0.000000	0.000000	0.000000	0.000000	0.000000	-12.832977	712.164181	-42.690690	0.185173	0.000000	-0.094689	0.000000	0.000000	0.000000	0.000000	-19.064508	0.000000	
18.778262	0.000000	0.000000	0.000000	0.000000	0.000000	0.000000	-13.500543	713.500947	-42.705334	0.184137	0.000000	-0.094690	0.000000	0.000000	0.000000	0.000000	-19.148186	0.000000	
18.779926	0.000000	0.000000	0.000000	0.000000	0.000000	0.000000	-14.171924	714.867213	-42.727228	0.183107	0.000000	-0.094691	0.000000	0.000000	0.000000	0.000000	-19.234188	0.000000	
18.781593	0.000000	0.000000	0.000000	0.000000	0.000000	0.000000	-14.847047	716.263381	-42.756571	0.182084	0.000000	-0.094693	0.000000	0.000000	0.000000	0.000000	-19.322448	0.000000	
18.783265	0.000000	0.000000	0.000000	0.000000	0.000000	0.000000	-15.525832	717.689846	-42.793550	0.181067	0.000000	-0.094695	0.000000	0.000000	0.000000	0.000000	-19.412897	0.000000	
18.784935	0.000000	0.000000	0.000000	0.000000	0.000000	0.000000	-16.208187	719.146992	-42.838337	0.180055	0.000000	-0.094697	0.000000	0.000000	0.000000	0.000000	-19.505456	0.000000	
18.786601	0.000000	0.000000	0.000000	0.000000	0.000000	0.000000	-16.894006	720.635184	-42.891092	0.179049	0.000000	-0.094699	0.000000	0.000000	0.000000	0.000000	-19.600042	0.000000	
18.788268	0.000000	0.000000	0.000000	0.000000	0.000000	0.000000	-17.583169	722.154761	-42.951958	0.178048	0.000000	-0.094702	0.000000	0.000000	0.000000	0.000000	-19.696566	0.000000	
18.789932	0.000000	0.000000	0.000000	0.000000	0.000000	0.000000	-18.275539	723.706032	-43.021065	0.177051	0.000000	-0.094706	0.000000	0.000000	0.000000	0.000000	-19.794929	0.000000	
